<?xml version="1.0" encoding="UTF-8"?>
<svg width="40px" height="40px" viewBox="0 0 40 40" version="1.1" xmlns="http://www.w3.org/2000/svg" xmlns:xlink="http://www.w3.org/1999/xlink">
    <!-- Generator: Sketch 62 (91390) - https://sketch.com -->
    <title>01.Fragments/Icon/32px/Social/spotify-32</title>
    <desc>Created with Sketch.</desc>
    <defs>
        <path d="M25.9998,19.9999 C25.9998,16.6879 23.3118,13.9999 19.9998,13.9999 C16.6878,13.9999 13.9998,16.6879 13.9998,19.9999 C13.9998,23.3119 16.6878,25.9999 19.9998,25.9999 C23.3118,25.9999 25.9998,23.3119 25.9998,19.9999 M31.9998,19.9999 C31.9998,26.6159 26.6168,31.9999 19.9998,31.9999 C13.3828,31.9999 7.9998,26.6159 7.9998,19.9999 C7.9998,13.3829 13.3828,7.9999 19.9998,7.9999 C26.6178,7.9999 31.9998,13.3829 31.9998,19.9999 M19.0638,21.8239 C18.3198,21.8239 17.5858,21.9349 16.8798,22.1499 C16.6598,22.2179 16.5398,22.6779 16.6058,22.8949 C16.6738,23.1149 16.9038,23.2349 17.1198,23.1679 C17.7438,22.9709 18.3968,22.8749 19.0598,22.8749 C20.1588,22.8749 21.2528,23.1589 22.2128,23.6869 C22.2748,23.7199 22.3428,23.7339 22.4098,23.7339 C22.5538,23.7339 22.6928,23.6579 22.7698,23.5189 C22.8798,23.3169 22.8078,22.8369 22.6158,22.7359 C21.5358,22.1409 20.3068,21.8239 19.0638,21.8239 M19.0598,17.1679 C18.1378,17.1679 17.2158,17.2779 16.3278,17.4989 C16.0308,17.5759 15.8528,17.9309 15.9248,18.2239 C15.9968,18.5209 16.2938,18.6989 16.5918,18.6269 C17.3978,18.4259 18.2288,18.3249 19.0598,18.3249 C20.6578,18.3249 22.1888,18.6799 23.6098,19.3909 C23.6868,19.4289 23.7728,19.4479 23.8538,19.4479 C24.0558,19.4479 24.2478,19.2799 24.3488,19.0879 C24.4828,18.8139 24.3728,18.4829 24.0998,18.3489 C22.5248,17.5659 20.8308,17.1679 19.0598,17.1679 M23.5328,21.2579 C23.4468,21.4259 23.2778,21.6889 23.1058,21.6889 C23.0288,21.6889 22.9568,21.6749 22.8848,21.6369 C21.6938,21.0179 20.4078,20.7059 19.0548,20.7059 C18.3108,20.7059 17.5708,20.8019 16.8608,20.9989 C16.6018,21.0699 16.3378,20.9169 16.2708,20.6629 C16.2028,20.4029 16.3518,19.9659 16.6058,19.8989 C17.4028,19.6829 18.2238,19.5729 19.0548,19.5729 C20.5378,19.5729 22.0158,19.9329 23.3268,20.6139 C23.5658,20.7289 23.6578,21.0219 23.5328,21.2579" id="path-1"></path>
    </defs>
    <g id="01.Fragments/Icon/32px/Social/spotify-32" stroke="none" stroke-width="1" fill="none" fill-rule="evenodd">
        <mask id="mask-2" fill="white">
            <use xlink:href="#path-1"></use>
        </mask>
        <use id="Fill-8" fill="#000000" fill-rule="nonzero" xlink:href="#path-1"></use>
        <g id="00.Colors/01-Primary/01-Black" mask="url(#mask-2)" fill="#000000" fill-rule="nonzero">
            <rect id="Rectangle" x="0" y="0" width="40" height="40"></rect>
        </g>
    </g>
</svg>